<svg id="Layer_1" data-name="Layer 1" xmlns="http://www.w3.org/2000/svg" viewBox="0 0 2097.21 605.19"><defs><style>.cls-1{fill:#f95615;}.cls-2,.cls-3{fill:#ff9812;}.cls-3{font-size:74.71px;}.cls-3,.cls-5,.cls-7{font-family:FredokaOne-Regular, Fredoka One;}.cls-4{letter-spacing:-0.02em;}.cls-5,.cls-7{font-size:258.93px;}.cls-5{fill:#635e59;}.cls-6{letter-spacing:-0.03em;}.cls-7{fill:#f47811;}.cls-8{letter-spacing:-0.02em;}.cls-9{letter-spacing:0em;}</style></defs><title>Logo</title><polygon class="cls-1" points="0 372.75 389.13 206.72 226.21 605.18 175.37 423.59 0 372.75"/><path class="cls-1" d="M181.22,511" transform="translate(-29.72 -409.11)"/><polygon class="cls-2" points="194.56 190.12 147.35 275.21 359.03 195.31 151.5 101.92 194.56 190.12"/><polygon class="cls-2" points="408.84 224.36 511.57 474.44 408.84 418.4 305.07 480.67 408.84 224.36"/><path class="cls-2" d="M69.93,815.06,113.51,827v71.6s.78,21.79,33.46,34.24h66.15l11.15,39.69H110.39s-27.76-15.31-32.95-29.83l-7.52-29.05Z" transform="translate(-29.72 -409.11)"/><path class="cls-2" d="M70.18,737.23V467.44S81.6,429,117.92,423.86H562s37.36,7.26,46.7,40.47S615,703,615,703l.5,223.1s-16.06,45.14-51.34,46.44H292.25l17.64-39.17H522.61s32.17,7.26,46.7-27l5.19-12.58-2.08-391.07s0-29.05-37.36-40.47l-388,2.08s-39.56,13.49-34.37,46.7V720.63L70.18,742.42" transform="translate(-29.72 -409.11)"/><text class="cls-3" transform="translate(410.92 148.09)"><tspan class="cls-4">C</tspan><tspan x="49.24" y="0">C</tspan></text><text class="cls-5" transform="translate(624.71 224.36)">Bac<tspan class="cls-6" x="455.45" y="0">k</tspan><tspan x="586.46" y="0">g</tspan><tspan class="cls-6" x="737.93" y="0">r</tspan><tspan x="848.49" y="0">ound</tspan></text><text class="cls-7" transform="translate(805.14 510.46)"><tspan class="cls-8">R</tspan><tspan x="158.21" y="0">em</tspan><tspan class="cls-6" x="526.92" y="0">ov</tspan><tspan class="cls-9" x="831.93" y="0">er</tspan></text></svg>